<mxfile host="65bd71144e">
    <diagram id="eDpUTrI8W1gnL8oHjOII" name="use case">
        <mxGraphModel dx="415" dy="155" grid="1" gridSize="10" guides="1" tooltips="1" connect="1" arrows="1" fold="1" page="1" pageScale="1" pageWidth="850" pageHeight="1100" math="0" shadow="0">
            <root>
                <mxCell id="0"/>
                <mxCell id="1" parent="0"/>
                <mxCell id="2" value="Youconnect" style="shape=umlFrame;whiteSpace=wrap;html=1;width=120;height=40;" vertex="1" parent="1">
                    <mxGeometry x="120" y="20" width="520" height="620" as="geometry"/>
                </mxCell>
                <mxCell id="3" value="Actor" style="shape=umlActor;verticalLabelPosition=bottom;verticalAlign=top;html=1;" vertex="1" parent="1">
                    <mxGeometry x="60" y="270" width="30" height="60" as="geometry"/>
                </mxCell>
            </root>
        </mxGraphModel>
    </diagram>
</mxfile>